# xmcd
#
# Track frame offsets:
# 150
# 13964
# 26620
# 39057
# 51463
# 62088
# 78839
# 95937
# 109446
# 128268
# 140062
# 153077
# 167299
# 185467
# 202396
# 218142
# 231960
# 247304
#
# Disc length: 3581 seconds
#
# Revision: 5
# Processed by: cddbd v1.5PL3 Copyright (c) Steve Scherf et al.
# Submitted via: Axialis_AX_CDPlayer 2.6
#
DISCID=020dfb12
DTITLE=Johnny Cash - The Essential Johnny Cash [Disc 2]
DYEAR=1900
DGENRE=
TTITLE0=It Ain't Me, Babe (with June Carter Cash)
TTITLE1=The One On The Right Is On The Left
TTITLE2=Jackson (with June Carter Cash)
TTITLE3=Folsom Prison Blues (Live)
TTITLE4=Daddy Sang Bass
TTITLE5=Girl From The North Country (with Bob Dylan)
TTITLE6=A Boy Named Sue (Live)
TTITLE7=If I Were A Carpenter (with June Carter Cash)
TTITLE8=Sunday Morning Coming Down (Live)
TTITLE9=Flesh And Blood
TTITLE10=Man In Black
TTITLE11=Ragged Old Flag
TTITLE12=One Piece At A Time
TTITLE13=Ghost riders in the sky
TTITLE14=Song of the Patriot
TTITLE15=Highwayman (with Willie Nelson, Kris Kristofferson, Waylon Jennings
TTITLE15=)
TTITLE16=The night Hank Williams came to town (with Waylon Jennings)
TTITLE17=The Wanderer (with U2)
EXTD=
EXTT0=
EXTT1=
EXTT2=
EXTT3=
EXTT4=
EXTT5=
EXTT6=
EXTT7=
EXTT8=
EXTT9=
EXTT10=
EXTT11=
EXTT12=
EXTT13=
EXTT14=
EXTT15=
EXTT16=
EXTT17=
PLAYORDER=
